<svg xmlns="http://www.w3.org/2000/svg" viewBox="0 0 1169.28 184.15"><defs><style>.cls-1{fill:#42210b;}.cls-2{fill:#fc0;}</style></defs><title>logo_nombre</title><g id="Capa_2" data-name="Capa 2"><g id="Capa_1-2" data-name="Capa 1"><rect class="cls-1" x="150.69" y="14.41" width="1018.59" height="155.34"/><rect class="cls-2" x="169.84" y="40.89" width="27.53" height="102.97"/><path class="cls-2" d="M194.21,44V140.7H173V44h21.21m6.32-6.32H166.68V147h33.85V37.73Z"/><path class="cls-2" d="M299.33,143.86l-40-58.63A3.16,3.16,0,0,0,253.58,87v56.85H228.14v-103h26.7L295.05,100a3.16,3.16,0,0,0,5.77-1.78V40.89h25.51v103Z"/><path class="cls-2" d="M323.18,44V140.7H301L262,83.45A6.32,6.32,0,0,0,250.42,87V140.7H231.3V44h21.87l39.27,57.7A6.32,6.32,0,0,0,304,98.19V44h19.2m6.32-6.32H297.66V98.19L256.51,37.73H225V147h31.76V87l40.93,60H329.5V37.73Z"/><path class="cls-2" d="M405.24,145.72c-12.38,0-22.55-2.1-30.22-6.25A42.51,42.51,0,0,1,357.32,121c-4.24-8.25-6.4-17.9-6.4-28.67,0-11.33,2.35-21.28,7-29.59A44.91,44.91,0,0,1,378.13,44c6.93-3.3,16.53-5,28.52-5,11.65,0,20.4,1,26,3.09a32.23,32.23,0,0,1,13.6,9.27,40,40,0,0,1,7.21,12.94L427,69.05a20.16,20.16,0,0,0-7-8.51c-3.73-2.54-8.45-3.83-14-3.83-8.34,0-15.1,3-20.11,8.82S378.45,80.15,378.45,92c0,12.74,2.44,21.71,7.46,27.43s12.11,8.68,21,8.68a38.69,38.69,0,0,0,11.77-1.79,61.61,61.61,0,0,0,12.44-5.89,3.16,3.16,0,0,0,1.54-2.71V107.43a3.16,3.16,0,0,0-3.16-3.16H410V87.85h45.87v41.76c-9.13,6.1-17.3,10.33-24.31,12.57C424.27,144.53,415.4,145.72,405.24,145.72Z"/><path class="cls-2" d="M406.66,42.18c11.28,0,19.67,1,24.93,2.9a28.72,28.72,0,0,1,12.29,8.36,34.4,34.4,0,0,1,5.25,8.45l-20.38,3.64a22.93,22.93,0,0,0-7-7.6c-4.26-2.91-9.58-4.38-15.82-4.38-9.3,0-16.87,3.34-22.51,9.93-5.46,6.39-8.11,15.72-8.11,28.52,0,13.54,2.7,23.19,8.24,29.51,5.68,6.47,13.54,9.76,23.35,9.76a41.83,41.83,0,0,0,12.73-1.94,63.84,63.84,0,0,0,13.1-6.18,6.32,6.32,0,0,0,3.09-5.43V107.43a6.32,6.32,0,0,0-6.32-6.32H413.2V91h39.55v36.9c-8.32,5.44-15.74,9.22-22.11,11.26-7,2.25-15.56,3.39-25.4,3.39-11.85,0-21.51-2-28.71-5.87a38.88,38.88,0,0,1-16.4-17.09c-4-7.8-6-17-6-27.23,0-10.78,2.21-20.22,6.58-28a41.24,41.24,0,0,1,18.82-17.46c6.52-3.1,15.66-4.68,27.18-4.68m0-6.32q-18.79,0-29.89,5.29a47.8,47.8,0,0,0-21.62,20.09q-7.38,13.23-7.38,31.12,0,17,6.75,30.12a45.4,45.4,0,0,0,19,19.76q12.26,6.64,31.72,6.63,15.8,0,27.32-3.69t26.5-13.9V84.69H406.88v22.74h22.59v10.29a58.29,58.29,0,0,1-11.78,5.59A35.37,35.37,0,0,1,406.88,125q-11.93,0-18.6-7.6T381.61,92q0-16.7,6.6-24.42t17.71-7.72q7.45,0,12.26,3.28A17.65,17.65,0,0,1,425,72.62l32.58-5.82a45.21,45.21,0,0,0-8.91-17.48,35.19,35.19,0,0,0-14.91-10.18q-9-3.28-27.1-3.28Z"/><path class="cls-2" d="M482.21,143.86v-103h84.18v17h-53.5a3.16,3.16,0,0,0-3.16,3.16V78.43a3.16,3.16,0,0,0,3.16,3.16h49.4v16h-49.4a3.16,3.16,0,0,0-3.16,3.16v21.54a3.16,3.16,0,0,0,3.16,3.16H568v18.43Z"/><path class="cls-2" d="M563.23,44v10.7H512.89a6.32,6.32,0,0,0-6.32,6.32V78.43a6.32,6.32,0,0,0,6.32,6.32h46.24V94.4H512.89a6.32,6.32,0,0,0-6.32,6.32v21.54a6.32,6.32,0,0,0,6.32,6.32h52V140.7H485.37V44h77.87m6.32-6.32H479V147h92.14V122.27h-58.3V100.72h52.56V78.43H512.89V61.06h56.66V37.73Z"/><path class="cls-2" d="M642.91,145.72c-11.79,0-21.62-1.87-29.22-5.57a43.18,43.18,0,0,1-18.31-17.4c-4.71-8-7.09-18.16-7.09-30.3,0-16.89,4.71-30.16,14-39.44s22.5-14,39.29-14c17.24,0,30.64,4.62,39.82,13.73s13.83,22.16,13.83,38.8c0,12.2-2,22.27-6.09,30a43.07,43.07,0,0,1-17.38,17.8C664.13,143.56,654.43,145.72,642.91,145.72Zm-1.42-87.45c-7.74,0-14.07,2.81-18.8,8.34s-6.95,14-6.95,26,2.26,20.37,6.9,25.83,11.15,8.34,19.14,8.34c8.2,0,14.68-2.76,19.27-8.21s6.71-14.34,6.71-27.46c0-11-2.36-19.31-7-24.63S649.52,58.28,641.49,58.28Z"/><path class="cls-2" d="M641.57,42.18c16.38,0,29,4.31,37.6,12.82s12.89,20.57,12.89,36.55c0,11.68-1.93,21.26-5.72,28.48a39.43,39.43,0,0,1-16.13,16.51c-7.13,4-16.32,6-27.29,6-11.3,0-20.67-1.77-27.84-5.25-7-3.4-12.55-8.69-17-16.17s-6.65-17.12-6.65-28.69c0-16.25,4.27-28.42,13.06-37.2s20.91-13.06,37.06-13.06m.22,87.75c9.17,0,16.47-3.14,21.68-9.33,5-6,7.45-15.6,7.45-29.49,0-12-2.55-20.72-7.79-26.71-5.38-6.16-12.67-9.28-21.64-9.28-8.71,0-15.84,3.18-21.2,9.44-5.19,6.06-7.71,15.23-7.71,28s2.5,21.82,7.66,27.87c5.34,6.28,12.59,9.46,21.55,9.46m-.22-94.06Q615,35.86,600,50.77T585.13,92.45q0,19.16,7.53,31.91T612.3,143q12.11,5.89,30.6,5.89,18.19,0,30.38-6.82A46,46,0,0,0,691.92,123q6.45-12.26,6.45-31.42,0-26.39-14.76-41t-42-14.65Zm.22,87.75q-10.59,0-16.74-7.23T618.9,92.6q0-16.7,6.19-23.93t16.4-7.23q10.66,0,16.89,7.12t6.23,22.55q0,18.34-6,25.42t-16.85,7.08Z"/><path class="cls-2" d="M742.53,143.86V64.72a3.16,3.16,0,0,0-3.16-3.16H708.09V40.89h96.34V61.56H773.15A3.16,3.16,0,0,0,770,64.72v79.14Z"/><path class="cls-2" d="M801.27,44V58.4H773.15a6.32,6.32,0,0,0-6.32,6.32v76H745.69v-76a6.32,6.32,0,0,0-6.32-6.32H711.25V44h90m6.32-6.32H704.93v27h34.44V147h33.77V64.72h34.44v-27Z"/><path class="cls-2" d="M826,143.86v-103h84.18v17h-53.5a3.16,3.16,0,0,0-3.16,3.16V78.43a3.16,3.16,0,0,0,3.16,3.16H906v16h-49.4a3.16,3.16,0,0,0-3.16,3.16v21.54a3.16,3.16,0,0,0,3.16,3.16h55.14v18.43Z"/><path class="cls-2" d="M907,44v10.7H856.64a6.32,6.32,0,0,0-6.32,6.32V78.43a6.32,6.32,0,0,0,6.32,6.32h46.24V94.4H856.64a6.32,6.32,0,0,0-6.32,6.32v21.54a6.32,6.32,0,0,0,6.32,6.32h52V140.7H829.12V44H907m6.32-6.32H822.8V147h92.14V122.27h-58.3V100.72H909.2V78.43H856.64V61.06H913.3V37.73Z"/><path class="cls-2" d="M978,145.72c-17.63,0-29.87-3.3-36.38-9.81a38.66,38.66,0,0,1-10.86-22.11l26-1.63a24.59,24.59,0,0,0,4.41,10.54c4.1,5.21,9.95,7.85,17.4,7.85,5.58,0,10-1.4,13.21-4.16a12.88,12.88,0,0,0,.23-20.2c-3-2.67-8.92-4.92-18.73-7.07C959,95.94,948.85,91.71,943,86.57a23.47,23.47,0,0,1-8.46-18.72,25.68,25.68,0,0,1,4.37-14.19c2.9-4.45,7.37-8,13.31-10.61,6.1-2.67,14.72-4,25.61-4,13.23,0,23.36,2.43,30.12,7.21,5.91,4.19,9.61,10.51,11.26,19.26L993.49,67a18.56,18.56,0,0,0-5.83-9.86c-3.28-2.71-7.73-4.08-13.23-4.08-4.67,0-8.34,1.09-10.9,3.23a10.85,10.85,0,0,0-4.11,8.5A9.16,9.16,0,0,0,963,71.9c1.22,1.11,4,2.88,12.73,4.71,14.4,3.1,24.81,6.26,30.93,9.38,5.82,3,10.09,6.65,12.67,10.93a27.74,27.74,0,0,1,3.91,14.55,31.7,31.7,0,0,1-5.3,17.65,33.43,33.43,0,0,1-14.88,12.29C996.53,144.27,988.11,145.72,978,145.72Z"/><path class="cls-2" d="M977.79,42.18c12.56,0,22.08,2.23,28.29,6.63,4.4,3.12,7.42,7.64,9.15,13.75L995.77,63.7a20.45,20.45,0,0,0-6.09-9c-3.86-3.19-9-4.8-15.24-4.8-5.43,0-9.78,1.34-12.93,4a13.92,13.92,0,0,0-5.24,10.92,12.21,12.21,0,0,0,4.62,9.45c2.57,2.28,6.83,3.92,14.16,5.45,14.15,3,24.31,6.11,30.18,9.11,5.29,2.7,9.13,6,11.4,9.75a24.3,24.3,0,0,1,3.45,12.91,28.21,28.21,0,0,1-4.78,15.92,29.93,29.93,0,0,1-13.51,11.13c-6.12,2.69-14.12,4.05-23.77,4.05-16.76,0-28.25-3-34.15-8.88a34.36,34.36,0,0,1-9.33-16.94l19.72-1.24a25.62,25.62,0,0,0,4.4,9.18c4.65,5.92,11.53,9,19.88,9,6.36,0,11.51-1.66,15.28-4.93a16.47,16.47,0,0,0,6.1-12.64,16.25,16.25,0,0,0-5.82-12.3c-3.44-3.09-9.66-5.5-20.14-7.8C960.25,93,950.52,89,945,84.17a20.46,20.46,0,0,1-7.36-16.32,22.27,22.27,0,0,1,3.86-12.47c2.59-4,6.49-7.06,11.92-9.44,5.7-2.49,13.89-3.76,24.34-3.76m0-6.32q-17.07,0-26.88,4.29T936.23,51.93a28.66,28.66,0,0,0-4.88,15.92,26.68,26.68,0,0,0,9.54,21.1q9.47,8.28,31.68,13.27,13.57,3,17.3,6.34a10,10,0,0,1,3.73,7.6,10.16,10.16,0,0,1-3.91,7.87q-3.91,3.39-11.15,3.39-9.69,0-14.91-6.63-3.21-4.1-4.25-11.93l-32.13,2q1.42,16.55,12.15,27.29T978,148.88q15.88,0,26.32-4.58a36.38,36.38,0,0,0,16.25-13.46,34.65,34.65,0,0,0,5.81-19.38A30.72,30.72,0,0,0,1022,95.28q-4.36-7.23-13.94-12.11t-31.72-9.65q-8.95-1.86-11.33-4a6.09,6.09,0,0,1-2.46-4.7,7.65,7.65,0,0,1,3-6.08q3-2.5,8.87-2.5,7.16,0,11.22,3.35T991,70.31l31.83-1.86q-2.09-17-13.08-24.79t-31.94-7.79Z"/><path class="cls-2" d="M1118.39,143.86l-4.79-15.8a3.16,3.16,0,0,0-3-2.24h-38.34a3.16,3.16,0,0,0-3,2.26l-4.66,15.78H1037l38.7-103h32.46l38.69,103Zm-26.88-81a3.16,3.16,0,0,0-3,2.24l-11.94,39.29a3.16,3.16,0,0,0,3,4.08h24a3.16,3.16,0,0,0,3-4.09l-12.06-39.29a3.16,3.16,0,0,0-3-2.23Z"/><path class="cls-2" d="M1106,44l36.32,96.65h-21.55l-4.11-13.55a6.32,6.32,0,0,0-6-4.49h-38.34a6.32,6.32,0,0,0-6.06,4.53l-4,13.51h-20.63L1077.89,44H1106m-26.39,67.62h24a6.32,6.32,0,0,0,6-8.17L1097.55,64.2a6.32,6.32,0,0,0-6-4.46h0a6.32,6.32,0,0,0-6,4.48l-11.94,39.29a6.32,6.32,0,0,0,6,8.16m30.77-73.94h-36.84L1032.43,147h34.48l5.33-18h38.34l5.47,18h35.37L1110.35,37.73Zm-30.77,67.62,11.94-39.29,12.06,39.29Z"/><path class="cls-1" d="M70.37,154.28c-5,.18-10.07.41-15.09.71s-10,.69-15,1.2q-3.75.38-7.47.88t-7.42,1.12A85.68,85.68,0,0,0,11,161.81a30.8,30.8,0,0,0-3.31,1.43,14.61,14.61,0,0,0-2.87,1.85,4.43,4.43,0,0,0-1.58,2.25,2.29,2.29,0,0,0-.06.55,2.09,2.09,0,0,0,.09.53,3.24,3.24,0,0,0,.61,1.1,9.54,9.54,0,0,0,2.46,2,25.46,25.46,0,0,0,3.14,1.6,51.89,51.89,0,0,0,6.91,2.35,114.85,114.85,0,0,0,14.58,2.81q7.39,1,14.88,1.43t15,.39q7.49,0,15-.47t14.86-1.53a106.64,106.64,0,0,0,14.53-3,44.31,44.31,0,0,0,6.8-2.52,18.67,18.67,0,0,0,3-1.74,6.14,6.14,0,0,0,2-2.15,2.31,2.31,0,0,0,.21-1.07,2.81,2.81,0,0,0-.35-1.14,7.41,7.41,0,0,0-2.17-2.22,21.67,21.67,0,0,0-3.05-1.77c-1.08-.53-2.21-1-3.36-1.44a74,74,0,0,0-7.09-2.25q-3.61-1-7.29-1.78c-4.9-1.06-9.86-1.93-14.84-2.7q7.56.26,15.1,1.26c2.51.34,5,.74,7.51,1.24a76.21,76.21,0,0,1,7.43,1.88,29.37,29.37,0,0,1,7.23,3.18,10.27,10.27,0,0,1,3.17,3,5.93,5.93,0,0,1,.85,2.41,5.42,5.42,0,0,1-.39,2.62,7.5,7.5,0,0,1-1.29,2,12,12,0,0,1-1.6,1.5,21,21,0,0,1-3.47,2.17,47.66,47.66,0,0,1-7.3,2.86c-9.88,3-20,4.3-30.15,5q-7.6.54-15.22.57t-15.22-.48a145,145,0,0,1-30.18-4.74A55.29,55.29,0,0,1,8,176.28a25.77,25.77,0,0,1-3.54-1.92,12.64,12.64,0,0,1-3.22-2.89,6.39,6.39,0,0,1-1.11-2.23A5.25,5.25,0,0,1,0,167.91a5.43,5.43,0,0,1,.17-1.32,6.13,6.13,0,0,1,1.1-2.23,9.48,9.48,0,0,1,1.58-1.6,17.5,17.5,0,0,1,3.52-2.15A33.64,33.64,0,0,1,10,159.14a61.39,61.39,0,0,1,7.46-2c2.5-.52,5-.92,7.53-1.27s5-.63,7.55-.86,5-.4,7.56-.55q7.57-.43,15.13-.45T70.37,154.28Z"/><circle class="cls-1" cx="59.27" cy="57.27" r="42.28"/><path class="cls-2" d="M59.93,170.94c-2.25-3.47-4.49-6.86-6.67-10.16-5.91-8.93-11.48-17.37-16.4-26.23C27.49,117.66,16.75,98,7.9,77.9A51,51,0,0,1,9,33.92,58.53,58.53,0,0,1,47.42,3.26,53.32,53.32,0,0,1,59.67,1.84a58.13,58.13,0,0,1,41.78,18.3c10.47,11,15.85,25,15.13,39.4-.25,5-1.55,10.57-4.08,17.46-11.86,32.22-30.41,60.35-50.06,90.13Zm0-153.36A40.5,40.5,0,0,0,31.1,29.65,39.74,39.74,0,0,0,19.42,58,40.77,40.77,0,0,0,60.07,98.3h0A40.36,40.36,0,1,0,60,17.58Z"/><path class="cls-1" d="M59.67,3.68A56.28,56.28,0,0,1,100.12,21.4c10.12,10.64,15.32,24.15,14.63,38-.24,4.83-1.5,10.21-4,16.92-11.78,32-30.28,60.06-49.86,89.75l-1,1.47c-1.74-2.66-3.46-5.27-5.15-7.82-5.89-8.9-11.44-17.31-16.33-26.11C29.12,116.8,18.4,97.15,9.58,77.16a49.17,49.17,0,0,1,1-42.42A56.67,56.67,0,0,1,47.84,5.05,51.5,51.5,0,0,1,59.67,3.68h0m.4,96.47h0A42.2,42.2,0,1,0,60,15.75h-.1A42.33,42.33,0,0,0,29.8,28.35a41.79,41.79,0,0,0,.37,59.41,42.26,42.26,0,0,0,29.91,12.38M59.67,0A55.05,55.05,0,0,0,47,1.48C14.84,9.08-8.85,44.53,6.21,78.64c8.58,19.43,18.73,38.21,29,56.8,7.22,13,15.91,25.21,24.66,38.87,20.9-31.77,41.55-62,54.31-96.68,2.12-5.75,3.89-11.94,4.19-18C120,27,91.29,0,59.67,0Zm.4,96.47A38.93,38.93,0,0,1,21.26,58c-.11-21.14,17.32-38.52,38.68-38.57H60a38.52,38.52,0,1,1,.07,77Z"/><path class="cls-1" d="M36.38,104A3.09,3.09,0,0,1,35,103.7c-5.75-2.81-8.93-8-9-10.62s2.67-6.05,5.08-8.59l6.22-6.55C46.76,68,56.53,57.72,66.18,47.65c1.07-1.11,1.16-1.48-.08-3.57A90.59,90.59,0,0,0,42.89,18.16l-2.75-1.91,3.27-.74a9.17,9.17,0,0,1,1.89-.15c12,0,27.12,11.65,33.07,16.66a3.47,3.47,0,0,0,2,1c.54,0,1.13-.45,1.74-1.34a5,5,0,0,1,4-2.55,4.07,4.07,0,0,1,2.7,1.1c2.12,1.84,4.15,3.87,6.11,5.83.84.84,1.69,1.69,2.55,2.53l1,1-1,1.05c-1.54,1.68-2.76,3-2.8,3.55s1,1.53,2.1,2.73l.06.06c3,3.27,12.06,11.46,12.15,11.54l1.08,1-1,1.09c-.38.44-9.47,10.77-12.85,13.83-1,.88-1.73,1.61-2.32,2.2-1.34,1.31-2,2-3,2h0c-1.35,0-1.9-1.11-2.65-2.65-.39-.8-.93-1.9-1.73-3.27S85,70.19,84.29,69c-1.23-2-2.5-4-3.6-6.11a23.1,23.1,0,0,0-1.4-2.43l-.53.65c-.36.45-.81,1-1.36,1.62-2.66,2.92-5.42,5.83-8.09,8.64l-4.23,4.46c-8,8.39-16.2,17.07-24.38,25.53l-.2.21C39.49,102.6,38.13,104,36.38,104Z"/><path class="cls-2" d="M45.29,16.83c3.82,0,14.61,1.58,32.13,16.31a4.71,4.71,0,0,0,2.9,1.34c1,0,2-.62,3-2a3.69,3.69,0,0,1,2.79-1.91,2.64,2.64,0,0,1,1.74.74c3,2.57,5.68,5.45,8.61,8.3-4.15,4.54-4.13,4.51-.66,8.32C98.82,51.32,108,59.6,108,59.6S98.64,70.27,95.28,73.31c-2.76,2.49-3.72,3.79-4.37,3.79s-1.06-1.67-3.12-5.19c-1.9-3.26-4.07-6.36-5.8-9.7-1.33-2.55-2-3.53-2.67-3.53s-1.45,1.34-3,3.05c-2.83,3.12-5.74,6.17-8.64,9.22-9.32,9.82-18.63,19.65-28,29.38-.85.88-2,2.21-3.25,2.21a1.63,1.63,0,0,1-.72-.17c-5.29-2.58-8.12-7.25-8.19-9.34-.08-2.55,3.54-6.34,4.72-7.57Q49.7,67,67.24,48.66c1.8-1.88,1.44-3.12.13-5.34A91.21,91.21,0,0,0,43.73,16.95a8,8,0,0,1,1.57-.12m0-2.94a10.56,10.56,0,0,0-2.21.19l-6.54,1.47,5.52,3.82A89.16,89.16,0,0,1,64.84,44.82a7.26,7.26,0,0,1,.68,1.33,3.19,3.19,0,0,1-.39.48C55.46,56.71,45.68,67,36.22,77l-6.16,6.48,0,0c-5,5.22-5.54,7.9-5.49,9.65a11.53,11.53,0,0,0,2.76,6.21A20.44,20.44,0,0,0,34.37,105a4.55,4.55,0,0,0,2,.47c2.38,0,4.06-1.75,5.17-2.91l.19-.2c8.18-8.46,16.42-17.14,24.39-25.53L69.8,73l.58-.61c2.67-2.81,5.44-5.72,8.1-8.66l.61-.69.29.55c1.13,2.16,2.42,4.22,3.66,6.21.74,1.18,1.51,2.41,2.21,3.61s1.28,2.35,1.68,3.18c.8,1.63,1.7,3.47,4,3.47,1.61,0,2.64-1,4.06-2.39.59-.58,1.32-1.29,2.28-2.16,3.45-3.11,12.59-13.51,13-14l1.92-2.18L110,57.41c-.09-.08-9.12-8.22-12-11.44l-.06-.06c-.56-.62-1.18-1.29-1.53-1.74.44-.59,1.35-1.59,2.24-2.55l1.93-2.1-2-2c-.86-.84-1.71-1.69-2.54-2.52-2-2-4-4-6.19-5.9a5.53,5.53,0,0,0-3.67-1.46,6.47,6.47,0,0,0-5.22,3.19,3,3,0,0,1-.59.67,3.47,3.47,0,0,1-1-.62c-7.8-6.56-15.19-11.32-22-14.14-5.67-2.36-9.69-2.86-12.06-2.86Z"/></g></g></svg>